<svg xmlns="http://www.w3.org/2000/svg" width="436.736" height="110" viewBox="0 0 746.94 188.131">
  <metadata><?xpacket begin="﻿" id="W5M0MpCehiHzreSzNTczkc9d"?>
<x:xmpmeta xmlns:x="adobe:ns:meta/" x:xmptk="Adobe XMP Core 5.6-c111 79.158325, 2015/09/10-01:10:20        ">
   <rdf:RDF xmlns:rdf="http://www.w3.org/1999/02/22-rdf-syntax-ns#">
      <rdf:Description rdf:about=""
            xmlns:xmp="http://ns.adobe.com/xap/1.0/"
            xmlns:xmpRights="http://ns.adobe.com/xap/1.0/rights/">
         <xmp:CreatorTool>Adobe Photoshop CC 2015 (Macintosh)</xmp:CreatorTool>
         <xmpRights:Marked>False</xmpRights:Marked>
      </rdf:Description>
   </rdf:RDF>
</x:xmpmeta>
                                                                                                    
                                                                                                    
                                                                                                    
                                                                                                    
                                                                                                    
                                                                                                    
                                                                                                    
                                                                                                    
                                                                                                    
                                                                                                    
                                                                                                    
                                                                                                    
                                                                                                    
                                                                                                    
                                                                                                    
                                                                                                    
                                                                                                    
                                                                                                    
                                                                                                    
                                                                                                    
                           
<?xpacket end="w"?></metadata>
<defs>
    <style>
      .cls-1 {
        fill: #8cc643;
        fill-rule: evenodd;
      }
    </style>
  </defs>
  <path id="CHERET" class="cls-1" d="M1311.49,1192.7v-21.26a1.3,1.3,0,0,0-1.71-1.46q-20.58,2.445-31.36,16t-10.78,35.54v67.91q0,45.93,42.14,51.54a1.3,1.3,0,0,0,1.71-1.46v-21.25q0-1.23-1.71-1.71-16.665-3.675-16.66-25.9V1220.3q0-21.99,16.66-25.9c1.14-.32,1.71-0.89,1.71-1.7h0Zm29.64,25.26c0,0.98.57,1.46,1.72,1.46h22.29a1.292,1.292,0,0,0,1.47-1.46q0-18.75-10.29-31.66-11.265-13.89-31.85-16.32a1.3,1.3,0,0,0-1.71,1.46v21.19a1.662,1.662,0,0,0,1.71,1.71q16.17,3.4,16.66,23.62h0Zm-18.37,100.14v21.4a1.3,1.3,0,0,0,1.71,1.47q20.58-2.445,31.85-16.48,10.29-13.035,10.29-31.97a1.3,1.3,0,0,0-1.47-1.48h-22.29c-1.15,0-1.72.49-1.72,1.48q-0.5,20.415-16.66,23.85a1.677,1.677,0,0,0-1.71,1.73h0Zm104.6,21.16V1171.2c0-.82-0.49-1.22-1.47-1.22h-22.53q-1.47,0-1.47,1.71v167.82c0,0.98.57,1.46,1.71,1.46h22.05a1.507,1.507,0,0,0,1.71-1.71h0Zm11.27-70.87h23.77a1.2,1.2,0,0,0,1.22-1.47v-21.19c0-.97-0.57-1.46-1.71-1.46h-23.28q-1.47,0-1.47,1.71v20.7q0,1.71,1.47,1.71h0Zm61,70.87V1171.2c0-.82-0.49-1.22-1.47-1.22h-22.54q-1.47,0-1.47,1.71v167.82c0,0.98.58,1.46,1.72,1.46h22.05a1.507,1.507,0,0,0,1.71-1.71h0Zm62.23,0V1171.2c0-.82-0.49-1.22-1.47-1.22h-22.54q-1.47,0-1.47,1.71v167.82c0,0.98.57,1.46,1.71,1.46h22.05a1.515,1.515,0,0,0,1.72-1.71h0Zm12.25-144.92h59.04a1.211,1.211,0,0,0,1.22-1.48v-21.41q0-1.47-1.71-1.47h-58.55c-0.98,0-1.47.57-1.47,1.72v20.91c0,1.15.49,1.73,1.47,1.73h0Zm0,146.63h59.04a1.2,1.2,0,0,0,1.22-1.47v-21.41c0-.98-0.57-1.48-1.71-1.48h-58.55c-0.98,0-1.47.58-1.47,1.73v20.91c0,1.15.49,1.72,1.47,1.72h0Zm0-73.07h39.93a1.2,1.2,0,0,0,1.22-1.46v-21.2c0-.97-0.57-1.46-1.71-1.46h-39.44q-1.47,0-1.47,1.71v20.7q0,1.71,1.47,1.71h0Zm118.81,71.36V1171.2c0-.82-0.49-1.22-1.47-1.22h-22.54q-1.47,0-1.47,1.71v167.82c0,0.98.57,1.46,1.71,1.46h22.05a1.515,1.515,0,0,0,1.72-1.71h0Zm41.15-137.62a23.927,23.927,0,0,1,6.86,17.3,25.176,25.176,0,0,1-7.22,18.02,24.182,24.182,0,0,1-18.25,7.55h-9.56a1.511,1.511,0,0,0-1.71,1.71v20.95a1.5,1.5,0,0,0,1.71,1.7h9.07l24.25,71.12a1.035,1.035,0,0,0,.98.98h24.5q2.685,0,1.47-2.44l-28.42-74.4a45.905,45.905,0,0,0,19.84-16.58q8.58-12.69,8.58-29.52,0-22.2-14.95-35.61-14.205-12.435-35.52-12.44h-9.8a1.508,1.508,0,0,0-1.71,1.7v21.19a1.511,1.511,0,0,0,1.71,1.71h9.56Q1727.205,1194.58,1734.07,1201.64Zm92.11,137.62V1171.2c0-.82-0.49-1.22-1.47-1.22h-22.53q-1.47,0-1.47,1.71v167.82c0,0.98.57,1.46,1.71,1.46h22.05a1.507,1.507,0,0,0,1.71-1.71h0Zm12.25-144.92h59.04a1.213,1.213,0,0,0,1.23-1.48v-21.41c0-.98-0.58-1.47-1.72-1.47h-58.55c-0.98,0-1.47.57-1.47,1.72v20.91c0,1.15.49,1.73,1.47,1.73h0Zm0,146.63h59.04a1.2,1.2,0,0,0,1.23-1.47v-21.41c0-.98-0.58-1.48-1.72-1.48h-58.55c-0.98,0-1.47.58-1.47,1.73v20.91c0,1.15.49,1.72,1.47,1.72h0Zm0-73.07h39.93a1.2,1.2,0,0,0,1.23-1.46v-21.2c0-.97-0.58-1.46-1.72-1.46h-39.44q-1.47,0-1.47,1.71v20.7q0,1.71,1.47,1.71h0Zm145.52,71.36V1194.58h28.9a1.518,1.518,0,0,0,1.72-1.72v-21.65a1.2,1.2,0,0,0-1.47-1.23h-83.54c-0.98,0-1.47.57-1.47,1.72v21.4c0,0.99.57,1.48,1.72,1.48h28.66v144.93c0,0.98.57,1.46,1.71,1.46h22.05a1.515,1.515,0,0,0,1.72-1.71h0Z" transform="translate(-1267.62 -1161.405)"/>
</svg>
